<svg xmlns="http://www.w3.org/2000/svg" xmlns:xlink="http://www.w3.org/1999/xlink" width="22pt" height="22pt" viewBox="0 0 22 22"><g id="surface1"><path style="stroke:none;fill-rule:nonzero;fill:#1976d2;fill-opacity:1" d="M19.25.0H2.75C1.234375.0.0 1.234375.0 2.75v16.5C0 20.765625 1.234375 22 2.75 22h16.5C20.765625 22 22 20.765625 22 19.25V2.75C22 1.234375 20.765625.0 19.25.0zm0 0"/><path style="stroke:none;fill-rule:nonzero;fill:#fafafa;fill-opacity:1" d="M18.5625 11H15.125V8.25C15.125 7.492188 15.742188 7.5625 16.5 7.5625h1.375V4.125h-2.75C12.847656 4.125 11 5.972656 11 8.25V11H8.25v3.4375H11V22h4.125V14.4375h2.0625zm0 0"/></g></svg>