<svg xmlns="http://www.w3.org/2000/svg" xmlns:xlink="http://www.w3.org/1999/xlink" width="22pt" height="22pt" viewBox="0 0 22 22"><defs><linearGradient id="linear0" gradientUnits="userSpaceOnUse" x1="275.517" y1="549.43" x2="275.517" y2="4.28" gradientTransform="matrix(0.0399249,0,0,0.0399249,0,0)"><stop offset="0" style="stop-color:#e09b3d;stop-opacity:1"/><stop offset=".3" style="stop-color:#c74c4d;stop-opacity:1"/><stop offset=".6" style="stop-color:#c21975;stop-opacity:1"/><stop offset="1" style="stop-color:#7024c4;stop-opacity:1"/></linearGradient><linearGradient id="linear1" gradientUnits="userSpaceOnUse" x1="275.517" y1="549.43" x2="275.517" y2="4.28" gradientTransform="matrix(0.0399249,0,0,0.0399249,0,0)"><stop offset="0" style="stop-color:#e09b3d;stop-opacity:1"/><stop offset=".3" style="stop-color:#c74c4d;stop-opacity:1"/><stop offset=".6" style="stop-color:#c21975;stop-opacity:1"/><stop offset="1" style="stop-color:#7024c4;stop-opacity:1"/></linearGradient><linearGradient id="linear2" gradientUnits="userSpaceOnUse" x1="418.31" y1="549.43" x2="418.31" y2="4.28" gradientTransform="matrix(0.0399249,0,0,0.0399249,0,0)"><stop offset="0" style="stop-color:#e09b3d;stop-opacity:1"/><stop offset=".3" style="stop-color:#c74c4d;stop-opacity:1"/><stop offset=".6" style="stop-color:#c21975;stop-opacity:1"/><stop offset="1" style="stop-color:#7024c4;stop-opacity:1"/></linearGradient></defs><g id="surface1"><path style="stroke:none;fill-rule:nonzero;fill:url(#linear0)" d="M15.445312.0H6.554688C2.941406.0.0 2.941406.0 6.554688V15.445312C0 19.058594 2.941406 22 6.554688 22H15.445312C19.058594 22 22 19.058594 22 15.445312V6.554688C22 2.941406 19.058594.0 15.445312.0zM19.785156 15.445312C19.785156 17.84375 17.84375 19.785156 15.445312 19.785156H6.554688C4.15625 19.785156 2.214844 17.84375 2.214844 15.445312V6.554688C2.214844 4.15625 4.15625 2.214844 6.554688 2.214844H15.445312C17.84375 2.214844 19.785156 4.15625 19.785156 6.554688zm0 0"/><path style="stroke:none;fill-rule:nonzero;fill:url(#linear1)" d="M11 5.308594C7.863281 5.308594 5.308594 7.863281 5.308594 11 5.308594 14.136719 7.863281 16.691406 11 16.691406 14.136719 16.691406 16.691406 14.136719 16.691406 11 16.691406 7.863281 14.136719 5.308594 11 5.308594zM11 14.476562C9.078125 14.476562 7.523438 12.921875 7.523438 11 7.523438 9.078125 9.078125 7.523438 11 7.523438 12.921875 7.523438 14.476562 9.078125 14.476562 11 14.476562 12.921875 12.921875 14.476562 11 14.476562zm0 0"/><path style="stroke:none;fill-rule:nonzero;fill:url(#linear2)" d="M18.0625 5.351562C18.0625 6.105469 17.453125 6.714844 16.699219 6.714844 15.949219 6.714844 15.335938 6.105469 15.335938 5.351562 15.335938 4.601562 15.949219 3.988281 16.699219 3.988281 17.453125 3.988281 18.0625 4.601562 18.0625 5.351562zm0 0"/></g></svg>