<svg xmlns="http://www.w3.org/2000/svg" xmlns:xlink="http://www.w3.org/1999/xlink" width="22pt" height="22pt" viewBox="0 0 22 22"><g id="surface1"><path style="stroke:none;fill-rule:nonzero;fill:#0077b7;fill-opacity:1" d="M20.011719.0H1.988281C.890625.0.0.890625.0 1.988281V20.011719C0 21.109375.890625 22 1.988281 22H20.011719C21.109375 22 22 21.109375 22 20.011719V1.988281C22 .890625 21.109375.0 20.011719.0zM6.808594 18.996094C6.808594 19.316406 6.546875 19.574219 6.230469 19.574219H3.761719C3.445312 19.574219 3.183594 19.316406 3.183594 18.996094V8.660156C3.183594 8.34375 3.445312 8.082031 3.761719 8.082031H6.230469C6.546875 8.082031 6.808594 8.34375 6.808594 8.660156zM4.996094 7.109375C3.703125 7.109375 2.652344 6.058594 2.652344 4.765625 2.652344 3.472656 3.703125 2.425781 4.996094 2.425781 6.289062 2.425781 7.339844 3.472656 7.339844 4.765625 7.339844 6.058594 6.289062 7.109375 4.996094 7.109375zM19.691406 19.042969c0 .29296899999999937-.23828100000000063.53125-.53125.53125H16.511719C16.21875 19.574219 15.980469 19.335938 15.980469 19.042969V14.195312C15.980469 13.472656 16.191406 11.027344 14.089844 11.027344 12.460938 11.027344 12.128906 12.699219 12.0625 13.453125V19.042969C12.0625 19.335938 11.824219 19.574219 11.53125 19.574219H8.972656C8.679688 19.574219 8.441406 19.335938 8.441406 19.042969V8.617188C8.441406 8.320312 8.679688 8.082031 8.972656 8.082031H11.53125C11.824219 8.082031 12.0625 8.320312 12.0625 8.617188V9.515625C12.667969 8.609375 13.566406 7.910156 15.480469 7.910156 19.714844 7.910156 19.691406 11.867188 19.691406 14.042969zm0 0"/></g></svg>