<svg xmlns="http://www.w3.org/2000/svg" xmlns:xlink="http://www.w3.org/1999/xlink" width="22pt" height="22pt" viewBox="0 0 22 22"><g id="surface1"><path style="stroke:none;fill-rule:nonzero;fill:#03a9f4;fill-opacity:1" d="M21.875 4.167969C21.726562 4.007812 21.492188 3.964844 21.300781 4.066406 21.101562 4.15625 20.898438 4.230469 20.6875 4.285156 21.015625 3.867188 21.261719 3.394531 21.414062 2.886719 21.484375 2.632812 21.332031 2.371094 21.074219 2.300781 20.941406 2.265625 20.792969 2.292969 20.679688 2.371094 19.953125 2.765625 19.179688 3.066406 18.378906 3.273438 16.726562 1.714844 14.214844 1.523438 12.347656 2.808594 10.90625 3.78125 10.113281 5.460938 10.28125 7.191406 7.160156 6.925781 4.289062 5.378906 2.347656 2.921875 2.25 2.800781 2.097656 2.734375 1.941406 2.742188 1.785156 2.75 1.640625 2.839844 1.558594 2.976562.902344 4.050781.710938 5.347656 1.03125 6.570312 1.195312 7.195312 1.476562 7.785156 1.863281 8.308594 1.691406 8.222656 1.527344 8.117188 1.378906 7.996094 1.171875 7.828125.871094 7.859375.703125 8.066406.636719 8.152344.597656 8.257812.597656 8.367188.625 10.136719 1.597656 11.757812 3.144531 12.613281 2.9375 12.589844 2.730469 12.542969 2.53125 12.480469 2.277344 12.40625 2.011719 12.550781 1.933594 12.800781 1.902344 12.914062 1.910156 13.03125 1.957031 13.136719 2.628906 14.640625 3.972656 15.742188 5.578125 16.101562 4.046875 16.964844 2.28125 17.328125.535156 17.140625.304688 17.113281.0898438 17.25.0234375 17.46875-.046875 17.683594.046875 17.921875.242188 18.03125 2.386719 19.304688 4.820312 19.996094 7.3125 20.039062 9.703125 20.03125 12.035156 19.316406 14.019531 17.988281 17.8125 15.472656 20.175781 10.957031 19.847656 6.914062 20.65625 6.316406 21.359375 5.582031 21.925781 4.746094 22.042969 4.566406 22.019531 4.328125 21.875 4.167969zm0 0"/></g></svg>